<svg xmlns="http://www.w3.org/2000/svg" viewBox="0 0 23.521 25">
  <defs>
    <style>
      .cls-1 {
        fill: #e91e63;
      }
    </style>
  </defs>
  <g id="clock" transform="translate(-1.354)">
    <g id="Group_1" data-name="Group 1" transform="translate(1.354 0)">
      <path id="Path_1" data-name="Path 1" class="cls-1" d="M3.39,7.5A10.294,10.294,0,0,1,9.572,3.14a.634.634,0,0,0,.388-.953,4.657,4.657,0,1,0-7.6,5.362A.635.635,0,0,0,3.39,7.5Z" transform="translate(-1.354 0)"/>
      <path id="Path_2" data-name="Path 2" class="cls-1" d="M32.535,0A4.648,4.648,0,0,0,28.6,2.17a.634.634,0,0,0,.391.956A10.287,10.287,0,0,1,35.2,7.456a.635.635,0,0,0,1.031.037A4.655,4.655,0,0,0,32.535,0Z" transform="translate(-13.675 0)"/>
      <path id="Path_3" data-name="Path 3" class="cls-1" d="M24.689,17.6A10.264,10.264,0,0,0,15.979,7.464a10.246,10.246,0,0,0-1.558-.131,10.253,10.253,0,0,0-6.8,17.936l-.865,1.218a1.165,1.165,0,1,0,1.9,1.35l.865-1.218a10.248,10.248,0,0,0,9.806,0l.865,1.218a1.165,1.165,0,0,0,1.9-1.35l-.865-1.218A10.233,10.233,0,0,0,24.689,17.6ZM14.422,25a7.395,7.395,0,1,1,7.4-7.4A7.4,7.4,0,0,1,14.422,25Z" transform="translate(-2.625 -3.328)"/>
      <path id="Path_4" data-name="Path 4" class="cls-1" d="M25.947,23.526l-2.821-1.742a1.348,1.348,0,0,0-.488-.816l.129-3.54a.819.819,0,1,0-1.637-.06L21,20.912a1.361,1.361,0,0,0,1.38,2.338l2.706,1.672a.82.82,0,1,0,.861-1.4Z" transform="translate(-10.006 -7.524)"/>
    </g>
  </g>
</svg>
