<svg xmlns="http://www.w3.org/2000/svg" viewBox="0 0 18.9 27.435">
  <defs>
    <style>
      .cls-1 {
        fill: #9c27b0;
      }
    </style>
  </defs>
  <g id="facebook-placeholder-for-locate-places-on-maps" transform="translate(-66.905)">
    <path id="Facebook_Places" class="cls-1" d="M85.359,6.828a8.548,8.548,0,0,0-.443-1.1A9.4,9.4,0,0,0,66.9,8.511V9.682c0,.049.017.488.041.707.342,2.731,2.5,5.634,4.106,8.365,1.732,2.926,3.528,5.8,5.308,8.682,1.1-1.878,2.191-3.78,3.264-5.609.292-.537.632-1.073.924-1.586.2-.341.568-.682.738-1,1.731-3.17,4.518-6.365,4.518-9.511V8.438A9.736,9.736,0,0,0,85.359,6.828ZM76.3,12.706a3.354,3.354,0,0,1-3.211-2.292A3.18,3.18,0,0,1,73,9.559V8.8a3.176,3.176,0,0,1,3.407-3.121,3.454,3.454,0,0,1,3.46,3.512A3.543,3.543,0,0,1,76.3,12.706Z"/>
  </g>
</svg>
